<?xml version="1.0" encoding="UTF-8" standalone="no"?>
<svg
   xmlns:dc="http://purl.org/dc/elements/1.1/"
   xmlns:cc="http://creativecommons.org/ns#"
   xmlns:rdf="http://www.w3.org/1999/02/22-rdf-syntax-ns#"
   xmlns:svg="http://www.w3.org/2000/svg"
   xmlns="http://www.w3.org/2000/svg"
   viewBox="0 0 391.56 391.56"
   height="391.56"
   width="391.56"
   xml:space="preserve"
   id="svg2"
   version="1.1"><metadata
     id="metadata8"><rdf:RDF><cc:Work
         rdf:about=""><dc:format>image/svg+xml</dc:format><dc:type
           rdf:resource="http://purl.org/dc/dcmitype/StillImage" /></cc:Work></rdf:RDF></metadata><defs
     id="defs6" /><g
     transform="matrix(1.3333333,0,0,-1.3333333,0,391.56)"
     id="g10"><g
       transform="scale(0.1)"
       id="g12"><path
         id="path14"
         style="fill:#050301;fill-opacity:1;fill-rule:nonzero;stroke:none"
         d="m 2627.14,1433.33 c 0,253.84 -129.64,379.9 -340.89,379.9 -88.59,0 -144.81,-20.44 -197.62,-69.86 v 412.29 h -182.91 v -158.75 c 0.22,-5.52 0.62,-10.66 0.62,-16.73 v -388.79 c -1.44,-1.62 -2.88,-3.07 -4.31,-4.72 -32.91,-37.98 -66.23,-76.56 -96.62,-117.48 -25.45,212.66 -179.58,340.64 -387.9,340.64 -228.28,0 -390.3,-153.33 -390.3,-403.76 0,-76.39 15.24,-143.6 42.68,-200.32 -94.421,-93.58 -200.98,-145.51 -306.449,-145.51 -163.546,0 -248.812,110.74 -248.812,356.04 0,233.41 64.824,339.03 182.375,339.03 51.105,0 85.18,-23.85 85.18,-61.33 v -3.41 l -1.7,-8.51 v -6.82 l -1.714,-8.53 c -1.7,-6.8 -5.11,-25.54 -5.11,-37.48 0,-69.83 46.004,-115.84 117.551,-115.84 68.141,0 115.839,49.41 115.839,115.84 0,114.14 -110.726,184 -291.308,184 -250.429,0 -410.754,-144.8 -410.754,-408.86 0,-253.84 168.844,-405.46 412.453,-405.46 140.153,0 264.239,53.32 377.719,162.85 68.14,-101.85 182.73,-159.44 322.35,-159.44 131.59,0 241.46,51.18 311.16,142.28 0.29,-0.1 0.5,-0.1 0.82,-0.23 -0.02,0.48 0.02,0.92 0,1.39 47.56,62.68 75.88,144.24 79.24,241.17 29.84,42.91 64.49,82.89 97.61,124.53 v -120.72 c 0,-141.4 8.52,-185.7 46,-248.72 54.51,-92.01 156.74,-143.11 281.09,-143.11 243.62,0 393.71,148.21 393.71,434.42 m -1020.45,-27.26 c 0,-255.54 -59.7,-349.23 -189.18,-349.23 -127.77,0 -187.48,93.69 -187.48,349.23 0,253.84 59.71,349.24 187.48,349.24 129.48,0 189.18,-95.4 189.18,-349.24 m 817.63,20.45 c 0,-287.91 -51.19,-373.09 -185.78,-373.09 -103.92,0 -149.91,57.92 -149.91,190.79 v 332.21 c 0,1.02 0.19,1.89 0.2,2.9 v 81.94 c 0,0 27.93,42.11 68.33,69.57 0.22,0.15 0.41,0.3 0.63,0.43 14.11,9.53 29.48,16.07 46.86,21.2 17.38,5.12 34,6.25 52.63,6.25 49.41,0 86.89,-18.74 110.74,-52.82 32.37,-47.7 56.3,-122.65 56.3,-279.38" /><path
         id="path16"
         style="fill:#050301;fill-opacity:1;fill-rule:nonzero;stroke:none"
         d="m 1018.51,794.578 c -10.62,0 -18.936,3.344 -24.951,10.043 -6.016,6.699 -9.024,16.051 -9.024,28.027 0,12.313 3.121,21.891 9.367,28.743 6.248,6.871 14.788,10.289 25.638,10.289 6.42,0 12.57,-1.11 18.45,-3.34 l -1.84,-6.02 c -6.43,2.141 -12.01,3.211 -16.75,3.211 -9.12,0 -16.02,-2.812 -20.712,-8.441 -4.696,-5.629 -7.043,-13.731 -7.043,-24.301 0,-10.027 2.347,-17.879 7.043,-23.551 4.692,-5.679 11.252,-8.508 19.682,-8.508 6.75,0 13.02,1.211 18.8,3.622 v -6.293 c -4.74,-2.321 -10.96,-3.481 -18.66,-3.481" /><path
         id="path18"
         style="fill:#050301;fill-opacity:1;fill-rule:nonzero;stroke:none"
         d="m 1065.51,833.199 c 0,-10.211 2.24,-18.179 6.73,-23.898 4.49,-5.711 10.84,-8.571 19.04,-8.571 8.2,0 14.55,2.86 19.04,8.571 4.48,5.719 6.73,13.687 6.73,23.898 0,10.25 -2.26,18.199 -6.8,23.86 -4.54,5.652 -10.9,8.472 -19.11,8.472 -8.2,0 -14.52,-2.812 -18.97,-8.441 -4.44,-5.629 -6.66,-13.59 -6.66,-23.891 z m 58.65,0 c 0,-12.121 -2.94,-21.59 -8.82,-28.41 -5.88,-6.809 -13.99,-10.211 -24.33,-10.211 -6.52,0 -12.26,1.57 -17.23,4.711 -4.97,3.152 -8.78,7.66 -11.42,13.539 -2.64,5.883 -3.96,12.66 -3.96,20.371 0,12.121 2.94,21.571 8.82,28.332 5.88,6.778 13.94,10.149 24.2,10.149 10.21,0 18.21,-3.418 24.02,-10.289 5.81,-6.852 8.72,-16.25 8.72,-28.192" /><path
         id="path20"
         style="fill:#050301;fill-opacity:1;fill-rule:nonzero;stroke:none"
         d="m 1204.96,795.941 v 48.2 c 0,7.468 -1.58,12.91 -4.72,16.289 -3.15,3.402 -8.02,5.101 -14.63,5.101 -8.89,0 -15.39,-2.242 -19.52,-6.742 -4.12,-4.48 -6.18,-11.758 -6.18,-21.828 v -41.02 h -6.77 v 74.309 h 5.74 l 1.3,-10.191 h 0.41 c 4.83,7.75 13.42,11.621 25.77,11.621 16.86,0 25.3,-9.039 25.3,-27.129 v -48.61 h -6.7" /><path
         id="path22"
         style="fill:#050301;fill-opacity:1;fill-rule:nonzero;stroke:none"
         d="m 1273.09,794.578 c -10.62,0 -18.94,3.344 -24.96,10.043 -6.01,6.699 -9.02,16.051 -9.02,28.027 0,12.313 3.12,21.891 9.37,28.743 6.24,6.871 14.79,10.289 25.63,10.289 6.43,0 12.58,-1.11 18.46,-3.34 l -1.85,-6.02 c -6.42,2.141 -12,3.211 -16.75,3.211 -9.11,0 -16.02,-2.812 -20.71,-8.441 -4.69,-5.629 -7.04,-13.731 -7.04,-24.301 0,-10.027 2.35,-17.879 7.04,-23.551 4.69,-5.679 11.26,-8.508 19.69,-8.508 6.74,0 13.01,1.211 18.8,3.622 v -6.293 c -4.74,-2.321 -10.96,-3.481 -18.66,-3.481" /><path
         id="path24"
         style="fill:#050301;fill-opacity:1;fill-rule:nonzero;stroke:none"
         d="m 1346.36,865.672 c -7.16,0 -12.9,-2.363 -17.23,-7.07 -4.33,-4.731 -6.86,-11.524 -7.59,-20.411 h 45.94 c 0,8.61 -1.87,15.348 -5.6,20.188 -3.74,4.871 -8.92,7.293 -15.52,7.293 z m 1.98,-71.094 c -10.8,0 -19.22,3.332 -25.26,9.981 -6.04,6.652 -9.06,15.972 -9.06,27.953 0,11.847 2.92,21.34 8.75,28.468 5.84,7.141 13.7,10.7 23.59,10.7 8.75,0 15.65,-3.051 20.71,-9.16 5.06,-6.098 7.59,-14.399 7.59,-24.879 v -5.469 h -53.53 c 0.1,-10.203 2.47,-18 7.15,-23.383 4.67,-5.379 11.35,-8.059 20.06,-8.059 4.24,0 7.96,0.29 11.18,0.891 3.21,0.59 7.28,1.859 12.2,3.82 v -6.152 c -4.2,-1.82 -8.07,-3.059 -11.62,-3.719 -3.56,-0.66 -7.48,-0.992 -11.76,-0.992" /><path
         id="path26"
         style="fill:#050301;fill-opacity:1;fill-rule:nonzero;stroke:none"
         d="m 1435.54,800.59 c 7.61,0 13.5,2.82 17.66,8.48 4.18,5.649 6.27,13.551 6.27,23.719 0,21.82 -7.89,32.742 -23.66,32.742 -8.66,0 -15.01,-2.383 -19.07,-7.152 -4.06,-4.75 -6.09,-12.52 -6.09,-23.27 v -2.187 c 0,-11.621 1.95,-19.91 5.85,-24.883 3.9,-4.969 10.24,-7.449 19.04,-7.449 z m 0.13,-6.012 c -11.44,0 -19.78,4.281 -25.02,12.852 h -0.47 l 0.2,-5.75 c 0.18,-3.36 0.27,-7.059 0.27,-11.071 v -28.3 h -6.76 V 870.25 h 5.74 l 1.3,-10.602 h 0.41 c 5.1,8.024 13.26,12.032 24.47,12.032 10.02,0 17.66,-3.289 22.94,-9.879 5.25,-6.582 7.89,-16.16 7.89,-28.742 0,-12.219 -2.78,-21.68 -8.31,-28.411 -5.54,-6.718 -13.08,-10.07 -22.66,-10.07" /><path
         id="path28"
         style="fill:#050301;fill-opacity:1;fill-rule:nonzero;stroke:none"
         d="m 1515.86,800.59 c 4.29,0 8.02,0.359 11.22,1.09 v -5.461 c -3.29,-1.098 -7.07,-1.641 -11.35,-1.641 -6.56,0 -11.41,1.754 -14.52,5.262 -3.13,3.5 -4.69,9.019 -4.69,16.539 v 47.992 h -11.01 v 3.969 l 11.01,3.07 3.42,16.82 h 3.48 v -17.98 h 21.81 v -5.879 h -21.81 V 817.34 c 0,-5.692 1.01,-9.91 3.01,-12.649 2,-2.73 5.15,-4.101 9.43,-4.101" /><path
         id="path30"
         style="fill:#050301;fill-opacity:1;fill-rule:nonzero;stroke:none"
         d="m 1647.98,815.289 c 0,-6.648 -2.53,-11.769 -7.58,-15.34 -5.06,-3.59 -12.24,-5.371 -21.54,-5.371 -9.93,0 -17.82,1.524 -23.65,4.582 v 7.309 c 7.47,-3.739 15.36,-5.61 23.65,-5.61 7.34,0 12.91,1.231 16.72,3.661 3.8,2.441 5.7,5.691 5.7,9.742 0,3.738 -1.51,6.886 -4.55,9.437 -3.02,2.551 -8,5.051 -14.93,7.52 -7.43,2.679 -12.64,5 -15.65,6.929 -3.01,1.942 -5.28,4.133 -6.8,6.563 -1.53,2.437 -2.29,5.418 -2.29,8.93 0,5.55 2.33,9.961 7,13.191 4.68,3.227 11.2,4.848 19.59,4.848 8.02,0 15.63,-1.5 22.83,-4.508 l -2.53,-6.152 c -7.29,3.011 -14.06,4.511 -20.3,4.511 -6.07,0 -10.87,-1 -14.43,-3.011 -3.55,-2 -5.33,-4.782 -5.33,-8.34 0,-3.871 1.38,-6.969 4.13,-9.289 2.77,-2.332 8.16,-4.922 16.17,-7.801 6.7,-2.41 11.58,-4.59 14.63,-6.52 3.06,-1.941 5.35,-4.14 6.88,-6.601 1.52,-2.457 2.28,-5.348 2.28,-8.68" /><path
         id="path32"
         style="fill:#050301;fill-opacity:1;fill-rule:nonzero;stroke:none"
         d="m 1699.66,800.59 c 4.29,0 8.02,0.359 11.21,1.09 v -5.461 c -3.28,-1.098 -7.06,-1.641 -11.34,-1.641 -6.57,0 -11.41,1.754 -14.53,5.262 -3.12,3.5 -4.68,9.019 -4.68,16.539 v 47.992 h -11.01 v 3.969 l 11.01,3.07 3.42,16.82 h 3.48 v -17.98 h 21.81 v -5.879 h -21.81 V 817.34 c 0,-5.692 1.01,-9.91 3.01,-12.649 2,-2.73 5.15,-4.101 9.43,-4.101" /><path
         id="path34"
         style="fill:#050301;fill-opacity:1;fill-rule:nonzero;stroke:none"
         d="m 1737.45,833.199 c 0,-10.211 2.24,-18.179 6.72,-23.898 4.5,-5.711 10.84,-8.571 19.05,-8.571 8.2,0 14.55,2.86 19.04,8.571 4.48,5.719 6.73,13.687 6.73,23.898 0,10.25 -2.27,18.199 -6.81,23.86 -4.53,5.652 -10.9,8.472 -19.1,8.472 -8.2,0 -14.53,-2.812 -18.96,-8.441 -4.46,-5.629 -6.67,-13.59 -6.67,-23.891 z m 58.65,0 c 0,-12.121 -2.94,-21.59 -8.82,-28.41 -5.88,-6.809 -13.99,-10.211 -24.34,-10.211 -6.51,0 -12.25,1.57 -17.22,4.711 -4.97,3.152 -8.77,7.66 -11.42,13.539 -2.64,5.883 -3.96,12.66 -3.96,20.371 0,12.121 2.94,21.571 8.82,28.332 5.87,6.778 13.94,10.149 24.19,10.149 10.21,0 18.23,-3.418 24.03,-10.289 5.82,-6.852 8.72,-16.25 8.72,-28.192" /><path
         id="path36"
         style="fill:#050301;fill-opacity:1;fill-rule:nonzero;stroke:none"
         d="m 1853.63,871.68 c 3.14,0 6.51,-0.321 10.12,-0.95 l -1.3,-6.5 c -3.1,0.77 -6.31,1.168 -9.64,1.168 -6.34,0 -11.54,-2.687 -15.59,-8.07 -4.05,-5.379 -6.08,-12.168 -6.08,-20.367 v -41.02 h -6.77 v 74.309 h 5.74 l 0.69,-13.398 h 0.47 c 3.06,5.468 6.31,9.308 9.78,11.507 3.47,2.223 7.66,3.321 12.58,3.321" /><path
         id="path38"
         style="fill:#050301;fill-opacity:1;fill-rule:nonzero;stroke:none"
         d="m 1913.75,865.672 c -7.16,0 -12.91,-2.363 -17.23,-7.07 -4.33,-4.731 -6.86,-11.524 -7.59,-20.411 h 45.94 c 0,8.61 -1.87,15.348 -5.61,20.188 -3.74,4.871 -8.9,7.293 -15.51,7.293 z m 1.98,-71.094 c -10.8,0 -19.22,3.332 -25.27,9.981 -6.03,6.652 -9.05,15.972 -9.05,27.953 0,11.847 2.92,21.34 8.75,28.468 5.83,7.141 13.69,10.7 23.59,10.7 8.75,0 15.65,-3.051 20.71,-9.16 5.06,-6.098 7.59,-14.399 7.59,-24.879 v -5.469 h -53.53 c 0.09,-10.203 2.47,-18 7.14,-23.383 4.68,-5.379 11.37,-8.059 20.07,-8.059 4.24,0 7.96,0.29 11.18,0.891 3.2,0.59 7.27,1.859 12.2,3.82 v -6.152 c -4.19,-1.82 -8.07,-3.059 -11.62,-3.719 -3.56,-0.66 -7.48,-0.992 -11.76,-0.992" /></g></g></svg>